<svg id="Layer_1" data-name="Layer 1" xmlns="http://www.w3.org/2000/svg" viewBox="0 0 104.36 40.03"><defs><style>.cls-1,.cls-4{font-size:17.67px;fill:#fff;}.cls-1{font-family:MyriadPro-Regular, Myriad Pro;}.cls-2{letter-spacing:0.01em;}.cls-3{letter-spacing:-0.05em;}.cls-4{font-family:Poppins-Thin, Poppins;font-weight:200;}.cls-5{fill:none;stroke:#fff;stroke-miterlimit:10;}</style></defs><title>laravel_resto</title><text class="cls-1" transform="translate(0 14.79) scale(0.99 1)">LA<tspan class="cls-2" x="19.15" y="0">R</tspan><tspan class="cls-3" x="28.75" y="0">A</tspan><tspan x="38.63" y="0">VEL </tspan></text><text class="cls-4" transform="translate(20.72 28.38) scale(0.99 1)">resto</text><path class="cls-5" d="M241,159.16l.52-.31,3.54-2a.2.2,0,0,0,.11-.2c0-1.76,0-3.52,0-5.29a.49.49,0,0,1,.27-.46l4.87-2.83a.5.5,0,0,1,.54,0l4.86,2.81a.51.51,0,0,1,.28.48c0,1.86,0,3.72,0,5.57a.51.51,0,0,1-.28.48l-4.62,2.67a.19.19,0,0,0-.1.18v5.28a.54.54,0,0,1-.29.51l-9.81,5.68a.55.55,0,0,1-.6,0L230.46,166a.46.46,0,0,1-.26-.44q0-8.53,0-17.08a.49.49,0,0,1,.26-.45q2.44-1.41,4.88-2.83a.5.5,0,0,1,.54,0l4.87,2.83a.5.5,0,0,1,.27.48v10.66Zm-10-10v.16q0,8,0,15.94a.21.21,0,0,0,.12.21q4.47,2.58,8.93,5.17l.12.06V166a.23.23,0,0,0-.12-.22c-1.52-.85-3-1.72-4.54-2.57a.59.59,0,0,1-.33-.58v-11c0-.08,0-.13-.09-.17l-4-2.3Zm10,21.54a.31.31,0,0,1,.1,0l9-5.2a.15.15,0,0,0,.09-.15v-4.56a.53.53,0,0,0,0-.12.7.7,0,0,1-.14.08l-8.91,5.11a.2.2,0,0,0-.11.2c0,1.52,0,3,0,4.55Zm-4.58-7.91.07,0,4,2.3a.14.14,0,0,0,.15,0l8.9-5.11.17-.1-.11-.06-3.92-2.28a.23.23,0,0,0-.27,0l-8.39,4.86Zm3.75-13.63-.12.06-3.95,2.29a.16.16,0,0,0-.1.17v10.27s0,.07,0,.12l.09,0,4-2.3a.17.17,0,0,0,.09-.17V149.13Zm6.24,2.12.09.06,4,2.31a.15.15,0,0,0,.18,0l3.91-2.26.16-.1-.11-.07-4-2.29a.17.17,0,0,0-.18,0l-3,1.73Zm-6.65-2.84-.12-.07-4-2.3a.15.15,0,0,0-.18,0l-4,2.3-.1.06.1.06,3.95,2.29a.18.18,0,0,0,.22,0l3.05-1.77ZM246,152c0,.05,0,.08,0,.11,0,1.52,0,3,0,4.57a.14.14,0,0,0,.09.14l4,2.31.1.05V154.5a.17.17,0,0,0-.11-.18l-3.91-2.27Zm5,7.18.1-.05,4-2.3a.16.16,0,0,0,.08-.15v-4.57s0-.06,0-.1l-.09,0-4,2.31a.15.15,0,0,0-.09.16v4.66Z" transform="translate(-161.41 -143.41)"/><path class="cls-5" d="M231,149.13l.11.06,4,2.3c.08,0,.09.09.09.17v11a.59.59,0,0,0,.33.58c1.51.85,3,1.72,4.54,2.57a.23.23,0,0,1,.12.22v4.68l-.12-.06q-4.45-2.6-8.93-5.17a.21.21,0,0,1-.12-.21q0-8,0-15.94Z" transform="translate(-161.41 -143.41)"/><path class="cls-5" d="M241,170.67v-.14c0-1.52,0-3,0-4.55a.2.2,0,0,1,.11-.2l8.91-5.11a.7.7,0,0,0,.14-.08.53.53,0,0,1,0,.12v4.56a.15.15,0,0,1-.09.15l-9,5.2A.31.31,0,0,0,241,170.67Z" transform="translate(-161.41 -143.41)"/><path class="cls-5" d="M236.44,162.76l.63-.36,8.39-4.86a.23.23,0,0,1,.27,0l3.92,2.28.11.06-.17.1-8.9,5.11a.14.14,0,0,1-.15,0l-4-2.3Z" transform="translate(-161.41 -143.41)"/><path class="cls-5" d="M240.19,149.13v10.39a.17.17,0,0,1-.09.17l-4,2.3-.09,0s0-.08,0-.12V151.65a.16.16,0,0,1,.1-.17l3.95-2.29Z" transform="translate(-161.41 -143.41)"/><path class="cls-5" d="M246.43,151.25l1.1-.64,3-1.73a.17.17,0,0,1,.18,0l4,2.29.11.07-.16.1-3.91,2.26a.15.15,0,0,1-.18,0l-4-2.31Z" transform="translate(-161.41 -143.41)"/><path class="cls-5" d="M239.78,148.41l-1,.58-3.05,1.77a.18.18,0,0,1-.22,0l-3.95-2.29-.1-.06.1-.06,4-2.3a.15.15,0,0,1,.18,0l4,2.3Z" transform="translate(-161.41 -143.41)"/><path class="cls-5" d="M246,152l.15.08,3.91,2.27a.17.17,0,0,1,.11.18v4.65l-.1-.05-4-2.31a.14.14,0,0,1-.09-.14c0-1.52,0-3.05,0-4.57C246,152.05,246,152,246,152Z" transform="translate(-161.41 -143.41)"/><path class="cls-5" d="M251,159.15v-4.66a.15.15,0,0,1,.09-.16l4-2.31.09,0s0,.07,0,.1v4.57a.16.16,0,0,1-.08.15l-4,2.3Z" transform="translate(-161.41 -143.41)"/><rect x="103.13" y="38.8" width="1.23" height="1.23"/></svg>